<svg id="图层_1" data-name="图层 1" xmlns="http://www.w3.org/2000/svg" viewBox="0 0 287.77 231.81"><defs><style>.cls-1{fill:#4e7fff;fill-rule:evenodd;}</style></defs><title>未标题-1</title><path class="cls-1" d="M149.94,83.3c2.88-1,9.45-3.22,15.38-3.38l-8.49,118.33-6.89,15-6.89-15L134.56,79.92c5.93.16,12.5,2.41,15.38,3.38Zm0-4.3A46.26,46.26,0,0,0,132,76.1a98,98,0,0,0-15.38,1.77,5.14,5.14,0,0,1,.48,2.25,4.41,4.41,0,1,1-8.81,0,4.41,4.41,0,0,1,2.56-4,91.33,91.33,0,0,1,32.69-8l1.1-18.76a8.33,8.33,0,1,1,10.61,0l1.1,18.76a91.33,91.33,0,0,1,32.69,8,4.41,4.41,0,0,1,2.56,4,4.41,4.41,0,1,1-8.81,0,5.14,5.14,0,0,1,.48-2.25,98,98,0,0,0-15.38-1.77A46.26,46.26,0,0,0,149.94,79Zm68.7,51.3-15,51.11s-11.8.78-21,4-20.49,13-20.49,13l5.46-52.29s6.85-5.47,22.36-10.6a102.8,102.8,0,0,1,28.64-5.19Zm20.53-71L222,120.48s-17.91,1.13-28.2,3.83-25.42,9.61-25.42,9.61l4.09-37.46a155.43,155.43,0,0,0,32.09-8.74c15.49-6.34,34.56-28.45,34.56-28.45Zm-157.92,71a102.8,102.8,0,0,1,28.64,5.19c15.52,5.13,22.36,10.6,22.36,10.6l5.46,52.29s-11.28-9.82-20.49-13-21-4-21-4l-15-51.11Zm-20.83-71S79.49,81.39,95,87.73a155.43,155.43,0,0,0,32.09,8.74l4.09,37.46S116,127,105.74,124.31s-28.2-3.83-28.2-3.83L60.42,59.28Z" transform="translate(-5.91 -34.5)"/><path class="cls-1" d="M211.41,260.3l-5.81-19.08-5.86,19.08-1.61,5.47H187.67l12.46-33.14H211.3l12.46,33.14H213l-1.63-5.47Zm-146.62,0L59,241.22,53.13,260.3l-1.61,5.47H41.05l12.46-33.14H64.68l12.46,33.14H66.42l-1.63-5.47ZM227.17,246h14.6a15.43,15.43,0,0,0,2.71-.45,2.71,2.71,0,0,0,1.66-1,3.36,3.36,0,0,0-.37-4.39q-1-.86-3.82-.86H227.17V232.6h17.07a24.8,24.8,0,0,1,7.26.81,7.73,7.73,0,0,1,4,3,9.36,9.36,0,0,1-2.87,13.37,12.38,12.38,0,0,1-3.59,1.31,10.21,10.21,0,0,1,2.67,1.22,10.33,10.33,0,0,1,1.64,1.74,13,13,0,0,1,1.44,2.06l5,9.61H248.19l-5.47-10.13a7.72,7.72,0,0,0-1.85-2.55,4.3,4.3,0,0,0-2.51-.77h-.9v13.45H227.17V246ZM5.91,232.6H16.15v11.6H27.34V232.6H37.62v33.14H27.34V252.34H16.15v13.41H5.91V232.6Zm257.28,0H278.4a18.22,18.22,0,0,1,7.27,1.22,11.82,11.82,0,0,1,4.58,3.5,14.51,14.51,0,0,1,2.62,5.31,24.65,24.65,0,0,1,.81,6.42,22.29,22.29,0,0,1-1.21,8.24,13.64,13.64,0,0,1-3.36,4.91,11,11,0,0,1-4.61,2.63,23.76,23.76,0,0,1-6.1.9H263.18V232.6Zm10.24,7.51v18.11h2.51a10.56,10.56,0,0,0,4.57-.71,4.83,4.83,0,0,0,2.13-2.49,15.61,15.61,0,0,0,.77-5.75q0-5.27-1.72-7.21t-5.7-1.94ZM169.11,253.74v-6.9h15.83V261a32.42,32.42,0,0,1-8,4.22,27.28,27.28,0,0,1-8.29,1.12,20.14,20.14,0,0,1-9.62-2,13.77,13.77,0,0,1-5.76-6,19.69,19.69,0,0,1-2-9.13,19.07,19.07,0,0,1,2.24-9.44,14.5,14.5,0,0,1,6.56-6.09A21.33,21.33,0,0,1,169,232a25.47,25.47,0,0,1,8.22,1,10.67,10.67,0,0,1,4.52,3.09,13.71,13.71,0,0,1,2.7,5.3l-9.88,1.76a5.35,5.35,0,0,0-2.07-2.87,6.46,6.46,0,0,0-3.72-1,6.71,6.71,0,0,0-5.37,2.34q-2,2.34-2,7.4,0,5.38,2,7.69a7.11,7.11,0,0,0,5.64,2.31,10.73,10.73,0,0,0,3.28-.5,17.71,17.71,0,0,0,3.57-1.7v-3.12ZM113.93,232.6h10.24v11.6h11.19V232.6h10.29v33.14H135.36V252.34H124.17v13.41H113.93V232.6ZM78.66,254.78l9.74-.61a7.43,7.43,0,0,0,1.29,3.62,5.41,5.41,0,0,0,4.52,2,5,5,0,0,0,3.38-1,3.08,3.08,0,0,0,1.19-2.39,3,3,0,0,0-1.13-2.31q-1.13-1-5.24-1.92-6.74-1.51-9.61-4a8.09,8.09,0,0,1-2.89-6.4,8.69,8.69,0,0,1,1.48-4.83,9.82,9.82,0,0,1,4.45-3.57A20.79,20.79,0,0,1,94,232q6.35,0,9.69,2.36t4,7.52l-9.65.57a4.51,4.51,0,0,0-5-4.27,4.11,4.11,0,0,0-2.69.76,2.32,2.32,0,0,0-.9,1.84,1.85,1.85,0,0,0,.75,1.42,8.39,8.39,0,0,0,3.44,1.22,43,43,0,0,1,9.62,2.93,10.11,10.11,0,0,1,4.23,3.67,9.31,9.31,0,0,1,1.32,4.91,10.51,10.51,0,0,1-1.76,5.88,11,11,0,0,1-4.93,4.08,19.91,19.91,0,0,1-8,1.39q-8.46,0-11.71-3.26a12.84,12.84,0,0,1-3.69-8.27Z" transform="translate(-5.91 -34.5)"/></svg>