<?xml version="1.0" encoding="utf-8"?>
<!-- Generator: Adobe Illustrator 21.0.0, SVG Export Plug-In . SVG Version: 6.00 Build 0)  -->
<svg version="1.1" id="图层_1" xmlns="http://www.w3.org/2000/svg" xmlns:xlink="http://www.w3.org/1999/xlink" x="0px" y="0px"
	 viewBox="0 0 287.8 231.8" style="enable-background:new 0 0 287.8 231.8;" xml:space="preserve">
<style type="text/css">
	.st0{fill:#4E7FFF;}
</style>
<title>未标题-1</title>
<g>
	<path class="st0" d="M143.9,87.1c1.2-0.4,4.1-1.4,6.6-1.4l-3.6,50.7l-3,6.4l-3-6.4l-3.6-50.7C139.9,85.7,142.7,86.7,143.9,87.1z
		 M143.9,85.3c-2.5-0.9-5.1-1.3-7.7-1.2c-2.2,0.1-4.4,0.3-6.6,0.8c0.1,0.3,0.2,0.6,0.2,1c0,1-0.8,1.9-1.8,2c-1,0-1.9-0.8-2-1.8
		c0-0.1,0-0.1,0-0.2c0-0.7,0.4-1.4,1.1-1.7c4.4-2,9.2-3.2,14-3.4l0.5-8c-1.5-1.3-1.7-3.5-0.5-5c1.3-1.5,3.5-1.7,5-0.5
		c1.5,1.3,1.7,3.5,0.5,5c-0.1,0.2-0.3,0.3-0.5,0.5l0.5,8c4.8,0.3,9.6,1.4,14,3.4c0.7,0.3,1.1,1,1.1,1.7c0,1-0.8,1.9-1.8,2
		c-1,0-1.9-0.8-2-1.8c0-0.1,0-0.1,0-0.2c0-0.3,0.1-0.7,0.2-1c-2.2-0.4-4.4-0.7-6.6-0.8C149,83.9,146.4,84.4,143.9,85.3z
		 M173.4,107.3l-6.4,21.9c0,0-5.1,0.3-9,1.7c-3.9,1.4-8.8,5.6-8.8,5.6l2.3-22.4c0,0,2.9-2.3,9.6-4.5
		C165.1,108.2,169.2,107.4,173.4,107.3L173.4,107.3z M182.2,76.8l-7.4,26.2c0,0-7.7,0.5-12.1,1.6s-10.9,4.1-10.9,4.1l1.8-16.1
		c4.7-0.8,9.3-2,13.8-3.7C174,86.3,182.2,76.8,182.2,76.8L182.2,76.8z M114.5,107.3c4.2,0.2,8.3,0.9,12.3,2.2
		c6.7,2.2,9.6,4.5,9.6,4.5l2.3,22.4c0,0-4.8-4.2-8.8-5.6s-9-1.7-9-1.7L114.5,107.3L114.5,107.3z M105.6,76.8c0,0,8.2,9.5,14.8,12.2
		c4.4,1.7,9,3,13.8,3.7l1.8,16.1c0,0-6.5-3-10.9-4.1s-12.1-1.6-12.1-1.6L105.6,76.8L105.6,76.8z"/>
	<path class="st0" d="M170.3,163l-2.5-8.2l-2.5,8.2l-0.7,2.3h-4.5l5.3-14.2h4.8l5.3,14.2H171L170.3,163L170.3,163z M107.4,163
		l-2.5-8.2l-2.5,8.2l-0.7,2.3h-4.5l5.3-14.2h4.8l5.3,14.2h-4.6C108.1,165.3,107.4,163,107.4,163z M177,156.8h6.3
		c0.4,0,0.8-0.1,1.2-0.2c0.3-0.1,0.5-0.2,0.7-0.4c0.4-0.6,0.4-1.4-0.2-1.9c-0.3-0.2-0.8-0.4-1.6-0.4H177v-2.9h7.3
		c1,0,2.1,0.1,3.1,0.3c0.7,0.2,1.3,0.7,1.7,1.3c1.3,1.8,0.8,4.3-1,5.6c-0.1,0.1-0.1,0.1-0.2,0.1c-0.5,0.3-1,0.5-1.5,0.6
		c0.4,0.1,0.8,0.3,1.1,0.5c0.3,0.2,0.5,0.5,0.7,0.7c0.2,0.3,0.4,0.6,0.6,0.9l2.1,4.1h-5l-2.3-4.3c-0.2-0.4-0.5-0.8-0.8-1.1
		c-0.3-0.2-0.7-0.3-1.1-0.3h-0.4v5.8H177V156.8z M82.2,151.1h4.4v5h4.8v-5h4.4v14.2h-4.4v-5.7h-4.8v5.7h-4.4V151.1z M192.5,151.1
		h6.5c1.1,0,2.1,0.1,3.1,0.5c0.8,0.3,1.4,0.8,2,1.5c0.5,0.7,0.9,1.4,1.1,2.3c0.2,0.9,0.4,1.8,0.3,2.8c0.1,1.2-0.1,2.4-0.5,3.5
		c-0.3,0.8-0.8,1.5-1.4,2.1c-0.6,0.5-1.2,0.9-2,1.1c-0.9,0.2-1.7,0.4-2.6,0.4h-6.5L192.5,151.1L192.5,151.1z M196.9,154.3v7.8h1.1
		c0.7,0,1.3-0.1,2-0.3c0.4-0.2,0.7-0.6,0.9-1.1c0.3-0.8,0.4-1.6,0.3-2.5c0-1.5-0.2-2.5-0.7-3.1c-0.5-0.6-1.3-0.8-2.4-0.8
		L196.9,154.3z M152.2,160.2v-3h6.8v6.1c-1.1,0.8-2.2,1.4-3.4,1.8c-1.2,0.3-2.4,0.5-3.6,0.5c-1.4,0.1-2.8-0.2-4.1-0.9
		c-1.1-0.6-1.9-1.5-2.5-2.6c-0.6-1.2-0.9-2.6-0.9-3.9c0-1.4,0.3-2.8,1-4c0.6-1.1,1.6-2.1,2.8-2.6c1.2-0.5,2.5-0.8,3.8-0.7
		c1.2-0.1,2.4,0.1,3.5,0.4c0.7,0.3,1.4,0.7,1.9,1.3c0.5,0.7,0.9,1.4,1.2,2.3l-4.2,0.8c-0.1-0.5-0.5-0.9-0.9-1.2
		c-0.5-0.3-1-0.5-1.6-0.4c-0.9,0-1.7,0.3-2.3,1c-0.6,0.7-0.9,1.7-0.9,3.2c0,1.5,0.3,2.6,0.9,3.3c0.6,0.7,1.5,1,2.4,1
		c0.5,0,1-0.1,1.4-0.2c0.5-0.2,1-0.4,1.5-0.7v-1.3L152.2,160.2z M128.5,151.1h4.4v5h4.8v-5h4.4v14.2h-4.4v-5.7h-4.8v5.7h-4.4V151.1z
		 M113.4,160.6l4.2-0.3c0,0.6,0.2,1.1,0.6,1.6c0.5,0.6,1.2,0.9,1.9,0.9c0.5,0,1-0.1,1.4-0.4c0.3-0.2,0.5-0.6,0.5-1
		c0-0.4-0.2-0.7-0.5-1c-0.3-0.3-1.1-0.6-2.2-0.8c-1.9-0.4-3.3-1-4.1-1.7c-0.8-0.7-1.3-1.7-1.2-2.7c0-0.7,0.2-1.5,0.6-2.1
		c0.5-0.7,1.1-1.2,1.9-1.5c1.1-0.4,2.3-0.6,3.5-0.6c1.8,0,3.2,0.3,4.2,1c1,0.7,1.5,1.7,1.7,3.2l-4.1,0.2c-0.1-1.1-1-1.9-2-1.8
		c0,0-0.1,0-0.1,0c-0.4,0-0.8,0.1-1.2,0.3c-0.2,0.2-0.4,0.5-0.4,0.8c0,0.2,0.1,0.5,0.3,0.6c0.4,0.3,1,0.5,1.5,0.5
		c1.4,0.3,2.8,0.7,4.1,1.3c0.7,0.3,1.4,0.9,1.8,1.6c0.4,0.6,0.6,1.4,0.6,2.1c0,0.9-0.3,1.8-0.8,2.5c-0.5,0.8-1.3,1.4-2.1,1.7
		c-1.1,0.4-2.3,0.6-3.4,0.6c-2.4,0-4.1-0.5-5-1.4C114.1,163.2,113.5,161.9,113.4,160.6L113.4,160.6z"/>
</g>
</svg>
